<?xml version="1.0" standalone="no"?><svg xmlns:xlink="http://www.w3.org/1999/xlink" xmlns="http://www.w3.org/2000/svg" viewBox="0 0 1000 500" preserveAspectRatio="xMaxYMax slice"><g transform="scale(1.8518518518518519)"><rect x="0" y="0" width="540" height="270" fill="#ffffff"/><rect x="0" y="0" width="45" height="45" fill="#e5e9fc"/><path d="M 0 45 A 45 45 0 0 0 45 0 L 0 0" fill="#ff406d"/><rect x="45" y="0" width="45" height="45" fill="#fff5f7"/><rect x="45" y="0" width="45" height="45" fill="#ffd6e0"/><rect x="90" y="0" width="45" height="45" fill="#5874e9"/><path d="M 90 45 A 45 45 0 0 1  135 0 L 135 45" fill="#c3cdf7"/><rect x="135" y="0" width="45" height="45" fill="#ff7f9d"/><path d="M 135 45 A 45 45 0 0 1  180 0 L 180 45" fill="#2e51e4"/><rect x="180" y="0" width="45" height="45" fill="#e1e6fb"/><path d="M 180 0 A 45 45 0 0 1  225 45 L 180 0 A 45 45 0 0 0 225 45" fill="#ff93ad"/><rect x="225" y="0" width="45" height="45" fill="#ff8da8"/><path d="M 225 45 A 45 45 0 0 1  270 0 L 270 45" fill="#ff507a"/><rect x="270" y="0" width="45" height="45" fill="#ffd0db"/><rect x="270" y="0" width="45" height="45" fill="#4f6ce8"/><rect x="315" y="0" width="45" height="45" fill="#2e51e4"/><path d="M 315 0 A 45 45 0 0 0 360 45 L 360 0" fill="#1e44e2"/><rect x="360" y="0" width="45" height="45" fill="#7e94ee"/><rect x="360" y="0" width="45" height="45" fill="#ff9eb5"/><rect x="405" y="0" width="45" height="45" fill="#ffbecd"/><polygon points="405,0 450,0 450,45" fill="#ffdae3"/><rect x="450" y="0" width="45" height="45" fill="#dae0fa"/><polygon points="450,0 495,45 450,45" fill="#ff7b9a"/><rect x="495" y="0" width="45" height="45" fill="#3053e4"/><polygon points="495,0 540,0 495,45" fill="#ffbdcd"/><rect x="0" y="45" width="45" height="45" fill="#ff8ba6"/><rect x="0" y="45" width="45" height="45" fill="#ffc7d4"/><rect x="45" y="45" width="45" height="45" fill="#768ded"/><polygon points="45,45 90,45 90,90" fill="#ffe7ed"/><rect x="90" y="45" width="45" height="45" fill="#9eaff2"/><path d="M 90 90 A 45 45 0 0 1  135 45 L 135 90" fill="#4665e7"/><rect x="135" y="45" width="45" height="45" fill="#f8f9fe"/><rect x="135" y="45" width="45" height="45" fill="#768ded"/><rect x="180" y="45" width="45" height="45" fill="#879bef"/><polygon points="180,45 225,45 180,90" fill="#ffa7bc"/><rect x="225" y="45" width="45" height="45" fill="#ff6b8e"/><rect x="225" y="45" width="45" height="45" fill="#4665e7"/><rect x="270" y="45" width="45" height="45" fill="#8297ef"/><polygon points="270,45 315,45 270,90" fill="#4968e7"/><rect x="315" y="45" width="45" height="45" fill="#ebeffc"/><path d="M 315 90 A 45 45 0 0 1  360 45 L 360 90" fill="#ff84a1"/><rect x="360" y="45" width="45" height="45" fill="#4a68e7"/><rect x="360" y="45" width="45" height="45" fill="#ffc4d2"/><rect x="405" y="45" width="45" height="45" fill="#ff7d9c"/><polygon points="450,45 450,90 405,90" fill="#fff5f8"/><rect x="450" y="45" width="45" height="45" fill="#607bea"/><path d="M 450 90 A 45 45 0 0 1  495 45 L 495 90" fill="#a0b0f3"/><rect x="495" y="45" width="45" height="45" fill="#f0f2fd"/><path d="M 495 45 A 45 45 0 0 1 540 90 L 495 90" fill="#d1d9f9"/><rect x="0" y="90" width="45" height="45" fill="#8a9ef0"/><rect x="0" y="90" width="45" height="45" fill="#7e94ee"/><rect x="45" y="90" width="45" height="45" fill="#aebbf4"/><rect x="45" y="90" width="45" height="45" fill="#ff5981"/><rect x="90" y="90" width="45" height="45" fill="#ced7f9"/><polygon points="90,90 135,135 90,135" fill="#6f87ec"/><rect x="135" y="90" width="45" height="45" fill="#ffe0e8"/><path d="M 135 90 A 45 45 0 0 1  180 135 L 135 90 A 45 45 0 0 0 180 135" fill="#ff3e6c"/><rect x="180" y="90" width="45" height="45" fill="#ff3d6b"/><polygon points="180,90 225,90 225,135" fill="#ff6186"/><rect x="225" y="90" width="45" height="45" fill="#ff3665"/><polygon points="225,90 270,135 225,135" fill="#a1b1f3"/><rect x="270" y="90" width="45" height="45" fill="#ffd9e2"/><polygon points="270,90 315,135 270,135" fill="#ff688c"/><rect x="315" y="90" width="45" height="45" fill="#ffa3b9"/><rect x="315" y="90" width="45" height="45" fill="#ff809e"/><rect x="360" y="90" width="45" height="45" fill="#ff4974"/><path d="M 360 90 A 45 45 0 0 0 405 135 L 405 90" fill="#a8b7f4"/><rect x="405" y="90" width="45" height="45" fill="#4d6be8"/><polygon points="405,90 450,90 450,135" fill="#ff97b0"/><rect x="450" y="90" width="45" height="45" fill="#ff4f79"/><polygon points="450,90 495,90 495,135" fill="#a5b4f3"/><rect x="495" y="90" width="45" height="45" fill="#ffd5df"/><path d="M 495 90 A 45 45 0 0 1  540 135 L 495 90 A 45 45 0 0 0 540 135" fill="#ffdce4"/><rect x="0" y="135" width="45" height="45" fill="#ffa9bd"/><rect x="0" y="135" width="45" height="45" fill="#ff9ab2"/><rect x="45" y="135" width="45" height="45" fill="#ff8ea9"/><path d="M 45 180 A 45 45 0 0 1  90 135 L 90 180" fill="#ff7092"/><rect x="90" y="135" width="45" height="45" fill="#647eeb"/><polygon points="90,135 135,135 90,180" fill="#4c6ae8"/><rect x="135" y="135" width="45" height="45" fill="#ff678b"/><rect x="135" y="135" width="45" height="45" fill="#8fa2f0"/><rect x="180" y="135" width="45" height="45" fill="#8197ef"/><path d="M 180 135 A 45 45 0 0 1 225 180 L 180 180" fill="#ff688c"/><rect x="225" y="135" width="45" height="45" fill="#8398ef"/><path d="M 225 135 A 45 45 0 0 1  270 180 L 225 135 A 45 45 0 0 0 270 180" fill="#e8ecfc"/><rect x="270" y="135" width="45" height="45" fill="#ff416e"/><path d="M 270 180 A 45 45 0 0 1  315 135 L 270 180 A 45 45 0 0 0 315 135" fill="#ff9fb6"/><rect x="315" y="135" width="45" height="45" fill="#5975e9"/><polygon points="315,135 360,135 315,180" fill="#b2bff5"/><rect x="360" y="135" width="45" height="45" fill="#ff4d77"/><rect x="360" y="135" width="45" height="45" fill="#ff5f85"/><rect x="405" y="135" width="45" height="45" fill="#ff5a81"/><rect x="405" y="135" width="45" height="45" fill="#fff6f8"/><rect x="450" y="135" width="45" height="45" fill="#889cf0"/><path d="M 450 180 A 45 45 0 0 1  495 135 L 495 180" fill="#ff3b69"/><rect x="495" y="135" width="45" height="45" fill="#ff5f85"/><rect x="495" y="135" width="45" height="45" fill="#ff9cb4"/><rect x="0" y="180" width="45" height="45" fill="#7c92ee"/><rect x="0" y="180" width="45" height="45" fill="#a3b3f3"/><rect x="45" y="180" width="45" height="45" fill="#ffa3b9"/><path d="M 45 225 A 45 45 0 0 1  90 180 L 45 225 A 45 45 0 0 0 90 180" fill="#798fee"/><rect x="90" y="180" width="45" height="45" fill="#b9c4f6"/><polygon points="90,180 135,180 135,225" fill="#ffbbcb"/><rect x="135" y="180" width="45" height="45" fill="#ffd4de"/><polygon points="135,180 180,180 135,225" fill="#5d79ea"/><rect x="180" y="180" width="45" height="45" fill="#ffa7bc"/><path d="M 180 225 A 45 45 0 0 1  225 180 L 225 225" fill="#ffc4d2"/><rect x="225" y="180" width="45" height="45" fill="#ff99b1"/><path d="M 225 225 A 45 45 0 0 1  270 180 L 270 225" fill="#7e94ee"/><rect x="270" y="180" width="45" height="45" fill="#9aabf2"/><path d="M 270 225 A 45 45 0 0 1  315 180 L 270 225 A 45 45 0 0 0 315 180" fill="#dee4fb"/><rect x="315" y="180" width="45" height="45" fill="#ff809e"/><polygon points="360,180 360,225 315,225" fill="#ff6085"/><rect x="360" y="180" width="45" height="45" fill="#ffe2e9"/><path d="M 360 180 A 45 45 0 0 1 405 225 L 360 225" fill="#d6ddfa"/><rect x="405" y="180" width="45" height="45" fill="#ff9ab2"/><rect x="405" y="180" width="45" height="45" fill="#ff678b"/><rect x="450" y="180" width="45" height="45" fill="#ff4370"/><rect x="450" y="180" width="45" height="45" fill="#ffa9bd"/><rect x="495" y="180" width="45" height="45" fill="#ff6388"/><rect x="495" y="180" width="45" height="45" fill="#ff7f9d"/><rect x="0" y="225" width="45" height="45" fill="#2f52e4"/><path d="M 0 270 A 45 45 0 0 1  45 225 L 0 270 A 45 45 0 0 0 45 225" fill="#ff7595"/><rect x="45" y="225" width="45" height="45" fill="#ff7192"/><rect x="45" y="225" width="45" height="45" fill="#3e5fe6"/><rect x="90" y="225" width="45" height="45" fill="#c7d1f8"/><path d="M 90 225 A 45 45 0 0 0 135 270 L 135 225" fill="#ffbaca"/><rect x="135" y="225" width="45" height="45" fill="#acbaf4"/><rect x="135" y="225" width="45" height="45" fill="#1b42e1"/><rect x="180" y="225" width="45" height="45" fill="#f3f5fd"/><path d="M 180 270 A 45 45 0 0 0 225 225 L 180 225" fill="#f2f4fd"/><rect x="225" y="225" width="45" height="45" fill="#ffb5c6"/><polygon points="225,225 270,270 225,270" fill="#ced6f9"/><rect x="270" y="225" width="45" height="45" fill="#899df0"/><polygon points="270,225 315,225 315,270" fill="#92a4f1"/><rect x="315" y="225" width="45" height="45" fill="#ff3a69"/><path d="M 315 270 A 45 45 0 0 1  360 225 L 315 270 A 45 45 0 0 0 360 225" fill="#889cf0"/><rect x="360" y="225" width="45" height="45" fill="#ffecf0"/><rect x="360" y="225" width="45" height="45" fill="#5672e9"/><rect x="405" y="225" width="45" height="45" fill="#4a69e8"/><rect x="405" y="225" width="45" height="45" fill="#788fee"/><rect x="450" y="225" width="45" height="45" fill="#ff5079"/><polygon points="450,225 495,225 450,270" fill="#ff3968"/><rect x="495" y="225" width="45" height="45" fill="#aebcf5"/><rect x="495" y="225" width="45" height="45" fill="#dfe5fb"/></g></svg>